<?xml version="1.0" encoding="utf-8"?>
<!-- Generator: Adobe Illustrator 25.2.3, SVG Export Plug-In . SVG Version: 6.00 Build 0)  -->
<svg version="1.1" id="Layer_1" xmlns="http://www.w3.org/2000/svg" xmlns:xlink="http://www.w3.org/1999/xlink" x="0px" y="0px"
	 viewBox="0 0 1059.2 212.6" style="enable-background:new 0 0 1059.2 212.6;" xml:space="preserve">
<style type="text/css">
	.st0{fill:#E6E7E8;}
	.st1{fill:#FFFFFF;}
</style>
<g>
	<path class="st0" d="M51.2,15.6L103.9,130l52.5-114.3C160.7,6.1,170.2,0,180.7,0h0.1c19.8,0,32.8,20.7,24.1,38.5l-77.3,159
		c-9.8,20.2-38.5,20.1-48.3-0.1L2.7,38.5C-5.9,20.7,7.1,0,26.8,0h0C37.3,0,46.8,6.1,51.2,15.6z"/>
</g>
<path class="st0" d="M103.9,129.9l27.5,59.8l19.4-39.9C150.8,149.8,122.1,169.4,103.9,129.9z"/>
<path class="st1" d="M51.2,15.6l80.2,174.1l28.3-58.3C159.8,131.4,131.4,189.7,51.2,15.6z"/>
<path class="st0" d="M281.3,209.4V18H294v191.4H281.3z"/>
<path class="st0" d="M488.4,209.4l-71.6-95.7h-24.3v95.7h-12.6V18h52c8.4,0,16.4,1,24,3.1c7.6,2.1,14.1,5.1,19.6,9.1
	c5.5,4,9.8,9,13.1,14.9c3.3,5.9,4.9,12.7,4.9,20.4c0,8.4-1.5,15.6-4.6,21.7c-3,6.1-7.4,11.1-12.9,15c-5.6,3.9-12.1,6.8-19.7,8.7
	c-7.6,1.9-15.9,2.8-24.9,2.8l72.2,95.7H488.4z M476.4,49.2c-2.5-4.6-6-8.3-10.4-11.3c-4.4-2.9-9.6-5.2-15.5-6.7
	c-5.9-1.5-12.2-2.3-18.9-2.3h-39.1v73.7h42.6c13.5,0,24.3-3.2,32.6-9.7c8.3-6.4,12.5-15.7,12.5-27.9
	C480.2,59.1,478.9,53.8,476.4,49.2z"/>
<path class="st0" d="M612.1,29v180.4h-12.9V29h-49.8V18H662v11H612.1z"/>
<path class="st0" d="M839.9,198.9c-11.6,8.2-26.8,12.3-45.7,12.3c-18.3,0-33.5-4.2-45.7-12.6c-12.8-9.1-19.2-21.4-19.2-37V18h12.6
	v143.7c0,12.3,5.3,22,15.8,29c9.7,6.4,21.9,9.7,36.6,9.7c14.5,0,26.7-3.3,36.6-9.9c10.7-7.1,16.1-16.7,16.1-28.7V18h12.9v143.7
	C859.7,177.2,853.1,189.6,839.9,198.9z"/>
<path class="st0" d="M1022.9,207.8c-8.2,2.5-17.9,3.8-29,3.8c-34.5,0-56.7-13.9-66.6-41.6l12.9-3.8c7.4,22.9,25.2,34.3,53.6,34.3
	c16.2,0,28.9-3.4,38.2-10.2c9.5-7,14.2-17.2,14.2-30.6c0-12.7-5.6-23.2-16.7-31.6c-2.9-2.3-7.5-4.9-13.6-7.8
	c-6.1-2.9-13.9-6.1-23.3-9.7c-17.9-6.8-30.1-12.7-36.6-17.7c-10.9-8-16.4-18.7-16.4-31.9c0-13.2,5.6-23.9,16.7-31.9
	c10.9-8.2,24.4-12.3,40.4-12.3c26.5,0,45.2,8.4,56.1,25.2l-12.3,4.6c-4.2-5.9-9.3-10.3-15.1-13.1c-7.4-3.9-16.9-5.9-28.7-5.9
	c-12.4,0-22.7,2.9-30.9,8.8c-8.8,6.3-13.2,14.5-13.2,24.7c0,9.1,4.6,17.1,13.9,23.9c5.3,3.6,15.8,8.4,31.5,14.5
	c9.9,3.8,18.4,7.5,25.5,11.1c7.1,3.7,12.9,7.4,17.3,11.1c12.2,10.2,18.3,22.9,18.3,38.1C1059.2,184.1,1047.1,200.1,1022.9,207.8z"/>
</svg>
